<?xml version="1.0" standalone="no"?>
<!DOCTYPE svg PUBLIC "-//W3C//DTD SVG 20010904//EN"
 "http://www.w3.org/TR/2001/REC-SVG-20010904/DTD/svg10.dtd">
<svg version="1.0" xmlns="http://www.w3.org/2000/svg"
 width="293.000000pt" height="293.000000pt" viewBox="0 0 293.000000 293.000000"
 preserveAspectRatio="xMidYMid meet">
<metadata>
Created by potrace 1.11, written by Peter Selinger 2001-2013
</metadata>
<g transform="translate(0.000000,293.000000) scale(0.100000,-0.100000)"
fill="#000000" stroke="none">
<path d="M1276 2838 c-43 -11 -101 -33 -128 -49 -27 -16 -53 -29 -58 -29 -6 0
-10 -4 -10 -9 0 -5 -8 -12 -19 -16 -16 -5 -136 -117 -168 -158 -91 -115 -171
-317 -177 -447 -1 -25 -10 -59 -19 -77 -35 -66 -18 -139 40 -177 58 -38 104
-36 164 6 25 16 28 17 40 1 20 -24 89 -53 127 -53 43 0 103 25 123 52 16 21
18 21 51 5 64 -30 131 -20 168 25 17 21 18 21 43 5 15 -9 42 -17 61 -17 29 0
38 -6 56 -35 79 -128 273 -143 383 -30 35 36 41 38 100 39 54 1 69 5 101 30
39 29 65 77 70 125 3 35 -23 101 -50 126 -20 19 -25 35 -39 135 -8 53 -52 161
-93 229 -85 140 -242 262 -396 308 -81 24 -87 25 -191 28 -76 3 -119 -1 -179
-17z"/>
<path d="M1409 1844 c-37 -45 -113 -56 -166 -24 -32 19 -33 19 -42 1 -17 -31
-98 -63 -147 -58 -45 4 -124 48 -124 70 0 6 -8 2 -18 -9 -25 -32 -55 -44 -106
-44 -43 0 -45 -2 -57 -37 -7 -21 -14 -42 -15 -48 -2 -5 -7 -24 -12 -42 -6 -17
-8 -34 -6 -36 3 -3 -8 -14 -24 -26 -55 -38 -76 -117 -50 -178 18 -39 34 -55
81 -78 32 -15 43 -27 48 -52 12 -58 59 -117 119 -149 25 -13 56 -18 106 -19
60 0 77 4 111 27 38 25 42 26 69 11 36 -18 127 -12 150 11 19 20 13 21 66 -9
25 -14 56 -26 69 -26 69 -4 148 36 171 87 9 19 16 23 32 17 33 -12 107 -7 117
8 5 8 9 10 9 5 0 -6 5 -5 11 1 8 8 22 6 53 -8 45 -19 93 -18 136 3 30 15 80
64 80 78 0 7 17 8 48 5 173 -23 254 210 102 297 -33 19 -43 32 -57 78 -32 102
-32 103 -111 104 -65 1 -72 -1 -88 -25 -51 -76 -203 -119 -271 -76 -7 5 -13 5
-13 2 0 -19 -100 68 -119 103 -8 16 -21 22 -44 22 -18 1 -43 7 -57 15 -32 18
-35 18 -51 -1z"/>
<path d="M1782 1177 c-36 -21 -95 -25 -116 -8 -10 9 -17 5 -31 -16 -24 -36
-54 -63 -85 -75 -59 -23 -144 -12 -176 23 -15 17 -18 16 -60 -6 -47 -25 -91
-26 -146 -4 -22 9 -32 8 -55 -9 -32 -23 -92 -41 -111 -34 -10 3 -11 0 -4 -14
6 -11 47 -118 93 -239 45 -121 89 -236 98 -255 8 -19 15 -37 16 -40 1 -3 6
-16 12 -30 6 -14 26 -61 44 -105 51 -123 136 -289 159 -310 19 -18 21 -18 40
0 23 20 112 195 175 340 21 50 47 110 59 135 11 25 21 50 22 55 1 6 34 89 72
185 39 96 87 218 107 270 21 52 40 101 42 108 4 8 -6 12 -31 12 -32 0 -72 14
-86 31 -3 3 -20 -3 -38 -14z"/>
</g>
</svg>
